<svg width="20" height="20" viewBox="0 0 20 20" fill="none" xmlns="http://www.w3.org/2000/svg">
<g clip-path="url(#clip0_2_231)">
<g filter="url(#filter0_d_2_231)">
<path d="M20 10C20 12.6522 18.9464 15.1957 17.0711 17.0711C15.1957 18.9464 12.6522 20 10 20C7.34784 20 4.8043 18.9464 2.92893 17.0711C1.05357 15.1957 0 12.6522 0 10C0 7.34784 1.05357 4.8043 2.92893 2.92893C4.8043 1.05357 7.34784 0 10 0C12.6522 0 15.1957 1.05357 17.0711 2.92893C18.9464 4.8043 20 7.34784 20 10V10ZM10 5C9.84201 5.00009 9.68579 5.03327 9.5414 5.09741C9.39701 5.16155 9.26766 5.25522 9.16168 5.37239C9.0557 5.48956 8.97543 5.62763 8.92606 5.77771C8.87668 5.92779 8.85929 6.08654 8.875 6.24375L9.3125 10.6275C9.3272 10.7997 9.406 10.9601 9.53331 11.077C9.66061 11.1939 9.82716 11.2588 10 11.2588C10.1728 11.2588 10.3394 11.1939 10.4667 11.077C10.594 10.9601 10.6728 10.7997 10.6875 10.6275L11.125 6.24375C11.1407 6.08654 11.1233 5.92779 11.0739 5.77771C11.0246 5.62763 10.9443 5.48956 10.8383 5.37239C10.7323 5.25522 10.603 5.16155 10.4586 5.09741C10.3142 5.03327 10.158 5.00009 10 5V5ZM10.0025 12.5C9.67098 12.5 9.35304 12.6317 9.11862 12.8661C8.8842 13.1005 8.7525 13.4185 8.7525 13.75C8.7525 14.0815 8.8842 14.3995 9.11862 14.6339C9.35304 14.8683 9.67098 15 10.0025 15C10.334 15 10.652 14.8683 10.8864 14.6339C11.1208 14.3995 11.2525 14.0815 11.2525 13.75C11.2525 13.4185 11.1208 13.1005 10.8864 12.8661C10.652 12.6317 10.334 12.5 10.0025 12.5Z" fill="#495057"/>
<path d="M10 5L9.99972 4.5C9.77189 4.50013 9.54663 4.54798 9.33842 4.64046C9.13022 4.73295 8.94369 4.86802 8.79087 5.03698C8.63804 5.20594 8.5223 5.40504 8.4511 5.62145C8.3799 5.83786 8.35482 6.06678 8.37748 6.29347L8.81466 10.6741C8.8409 10.9696 8.97656 11.2446 9.19512 11.4453C9.41468 11.6469 9.70191 11.7588 10 11.7588C10.2981 11.7588 10.5853 11.6469 10.8049 11.4453C11.0234 11.2446 11.1591 10.9696 11.1853 10.6741L11.6225 6.29347C11.6225 6.29345 11.6225 6.29343 11.6225 6.2934C11.6452 6.06673 11.6201 5.83783 11.5489 5.62145C11.4777 5.40504 11.362 5.20594 11.2091 5.03698C11.0563 4.86802 10.8698 4.73295 10.6616 4.64046C10.4534 4.54798 10.2281 4.50013 10.0003 4.5L10 5ZM19.5 10C19.5 12.5196 18.4991 14.9359 16.7175 16.7175C14.9359 18.4991 12.5196 19.5 10 19.5C7.48044 19.5 5.06408 18.4991 3.28249 16.7175C1.50089 14.9359 0.5 12.5196 0.5 10C0.5 7.48044 1.50089 5.06408 3.28249 3.28249C5.06408 1.50089 7.48044 0.5 10 0.5C12.5196 0.5 14.9359 1.50089 16.7175 3.28249C18.4991 5.06408 19.5 7.48044 19.5 10ZM10.0025 12C9.53837 12 9.09325 12.1844 8.76506 12.5126C8.43687 12.8408 8.2525 13.2859 8.2525 13.75C8.2525 14.2141 8.43687 14.6592 8.76506 14.9874C9.09325 15.3156 9.53837 15.5 10.0025 15.5C10.4666 15.5 10.9117 15.3156 11.2399 14.9874C11.5681 14.6592 11.7525 14.2141 11.7525 13.75C11.7525 13.2859 11.5681 12.8408 11.2399 12.5126C10.9117 12.1844 10.4666 12 10.0025 12Z" stroke="black"/>
</g>
</g>
<defs>
<filter id="filter0_d_2_231" x="-4" y="0" width="28" height="28" filterUnits="userSpaceOnUse" color-interpolation-filters="sRGB">
<feFlood flood-opacity="0" result="BackgroundImageFix"/>
<feColorMatrix in="SourceAlpha" type="matrix" values="0 0 0 0 0 0 0 0 0 0 0 0 0 0 0 0 0 0 127 0" result="hardAlpha"/>
<feOffset dy="4"/>
<feGaussianBlur stdDeviation="2"/>
<feComposite in2="hardAlpha" operator="out"/>
<feColorMatrix type="matrix" values="0 0 0 0 0 0 0 0 0 0 0 0 0 0 0 0 0 0 0.25 0"/>
<feBlend mode="normal" in2="BackgroundImageFix" result="effect1_dropShadow_2_231"/>
<feBlend mode="normal" in="SourceGraphic" in2="effect1_dropShadow_2_231" result="shape"/>
</filter>
<clipPath id="clip0_2_231">
<rect width="20" height="20" fill="white"/>
</clipPath>
</defs>
</svg>
